<mxfile host="Electron" modified="2024-06-01T12:15:11.617Z" agent="Mozilla/5.0 (Macintosh; Intel Mac OS X 10_15_7) AppleWebKit/537.36 (KHTML, like Gecko) draw.io/24.4.13 Chrome/124.0.6367.207 Electron/30.0.6 Safari/537.36" etag="ULaBhnL732PlL0fy6slO" version="24.4.13" type="device">
  <diagram name="페이지-1" id="hu1daSTV2CTeTU2pqJtM">
    <mxGraphModel dx="4581" dy="5061" grid="1" gridSize="10" guides="1" tooltips="1" connect="1" arrows="1" fold="1" page="1" pageScale="1" pageWidth="827" pageHeight="1169" math="0" shadow="0">
      <root>
        <mxCell id="0" />
        <mxCell id="1" parent="0" />
        <mxCell id="BSJFie1uUJTzOuVvLkni-1" value="사용자" style="shape=umlActor;verticalLabelPosition=bottom;verticalAlign=top;html=1;fontSize=20;" vertex="1" parent="1">
          <mxGeometry x="-800" y="-788.0447619047619" width="76.19033333333333" height="152.38095238095235" as="geometry" />
        </mxCell>
        <mxCell id="BSJFie1uUJTzOuVvLkni-4" value="&lt;p style=&quot;margin: 4px 0px 0px; text-align: center; font-size: 20px;&quot;&gt;&lt;br style=&quot;font-size: 20px;&quot;&gt;&lt;b style=&quot;font-size: 20px;&quot;&gt;지하철 노선도 System&lt;/b&gt;&lt;/p&gt;" style="verticalAlign=top;align=left;overflow=fill;html=1;whiteSpace=wrap;fillColor=none;fontSize=20;" vertex="1" parent="1">
          <mxGeometry x="-680" y="-1380" width="680" height="1860" as="geometry" />
        </mxCell>
        <mxCell id="BSJFie1uUJTzOuVvLkni-5" value="UC-02&lt;div&gt;열차 도착 정보&amp;nbsp;&lt;span style=&quot;background-color: initial;&quot;&gt;조회&lt;/span&gt;&lt;/div&gt;" style="ellipse;whiteSpace=wrap;html=1;fontSize=20;" vertex="1" parent="1">
          <mxGeometry x="-469.99800000000005" y="-920.0019047619048" width="228.57099999999997" height="114.28571428571429" as="geometry" />
        </mxCell>
        <mxCell id="BSJFie1uUJTzOuVvLkni-6" value="UC-05&lt;div style=&quot;font-size: 20px;&quot;&gt;최소 시간 경로 탐색&amp;nbsp;&lt;/div&gt;" style="ellipse;whiteSpace=wrap;html=1;fontSize=20;" vertex="1" parent="1">
          <mxGeometry x="-469.99800000000005" y="-608.9995238095239" width="228.57099999999997" height="114.28571428571429" as="geometry" />
        </mxCell>
        <mxCell id="BSJFie1uUJTzOuVvLkni-8" value="UC-03&lt;div&gt;역 정보 조회&lt;/div&gt;" style="ellipse;whiteSpace=wrap;html=1;fontSize=20;" vertex="1" parent="1">
          <mxGeometry x="-469.9980000000001" y="-1310.000476190476" width="228.57099999999997" height="114.28571428571429" as="geometry" />
        </mxCell>
        <mxCell id="BSJFie1uUJTzOuVvLkni-12" value="" style="endArrow=none;html=1;rounded=0;entryX=0;entryY=0.5;entryDx=0;entryDy=0;fontSize=20;" edge="1" parent="1" source="BSJFie1uUJTzOuVvLkni-1" target="BSJFie1uUJTzOuVvLkni-6">
          <mxGeometry width="50" height="50" relative="1" as="geometry">
            <mxPoint x="-824.7620833333333" y="-783.7638095238095" as="sourcePoint" />
            <mxPoint x="-443.81041666666675" y="-913.287619047619" as="targetPoint" />
          </mxGeometry>
        </mxCell>
        <mxCell id="BSJFie1uUJTzOuVvLkni-14" value="&lt;div style=&quot;font-size: 20px;&quot;&gt;&amp;lt;&amp;lt;system&amp;gt;&amp;gt;&lt;/div&gt;지하철 경로 탐색 시스템" style="html=1;whiteSpace=wrap;fontSize=20;" vertex="1" parent="1">
          <mxGeometry x="120" y="-191.9" width="228.57" height="76.19" as="geometry" />
        </mxCell>
        <mxCell id="BSJFie1uUJTzOuVvLkni-15" value="&lt;div style=&quot;font-size: 20px;&quot;&gt;&amp;lt;&amp;lt;system&amp;gt;&amp;gt;&lt;/div&gt;지하철 요금 책정 시스템" style="html=1;whiteSpace=wrap;fontSize=20;" vertex="1" parent="1">
          <mxGeometry x="119.9989999999998" y="34.807142857142935" width="228.57099999999997" height="76.19047619047618" as="geometry" />
        </mxCell>
        <mxCell id="BSJFie1uUJTzOuVvLkni-18" value="UC-10&lt;div style=&quot;font-size: 20px;&quot;&gt;지하철 노선 정보 등록&lt;/div&gt;" style="ellipse;whiteSpace=wrap;html=1;fontSize=20;" vertex="1" parent="1">
          <mxGeometry x="-470.00400000000013" y="40.00380952380969" width="228.57099999999997" height="114.28571428571429" as="geometry" />
        </mxCell>
        <mxCell id="BSJFie1uUJTzOuVvLkni-19" value="UC-12&lt;div style=&quot;font-size: 20px;&quot;&gt;지하철 운임 체계 등록&lt;/div&gt;" style="ellipse;whiteSpace=wrap;html=1;fontSize=20;" vertex="1" parent="1">
          <mxGeometry x="-470.00400000000013" y="359.99666666666644" width="228.57099999999997" height="114.28571428571429" as="geometry" />
        </mxCell>
        <mxCell id="BSJFie1uUJTzOuVvLkni-24" value="" style="endArrow=none;startArrow=none;endFill=0;startFill=0;endSize=8;html=1;verticalAlign=bottom;labelBackgroundColor=none;strokeWidth=1;rounded=0;entryX=0;entryY=0.5;entryDx=0;entryDy=0;fontSize=20;" edge="1" parent="1" source="BSJFie1uUJTzOuVvLkni-81" target="BSJFie1uUJTzOuVvLkni-18">
          <mxGeometry width="160" relative="1" as="geometry">
            <mxPoint x="-732.8534583333335" y="66.72486489237372" as="sourcePoint" />
            <mxPoint x="241.90258333333327" y="-334.71428571428567" as="targetPoint" />
          </mxGeometry>
        </mxCell>
        <mxCell id="BSJFie1uUJTzOuVvLkni-25" value="" style="endArrow=none;startArrow=none;endFill=0;startFill=0;endSize=8;html=1;verticalAlign=bottom;labelBackgroundColor=none;strokeWidth=1;rounded=0;entryX=0;entryY=0.5;entryDx=0;entryDy=0;fontSize=20;" edge="1" parent="1" source="BSJFie1uUJTzOuVvLkni-81" target="BSJFie1uUJTzOuVvLkni-19">
          <mxGeometry width="160" relative="1" as="geometry">
            <mxPoint x="-732.8534583333335" y="70.49384933227157" as="sourcePoint" />
            <mxPoint x="-443.81041666666675" y="-163.28571428571422" as="targetPoint" />
          </mxGeometry>
        </mxCell>
        <mxCell id="BSJFie1uUJTzOuVvLkni-28" value="" style="endArrow=none;html=1;rounded=0;entryX=0;entryY=0.25;entryDx=0;entryDy=0;exitX=1;exitY=0.5;exitDx=0;exitDy=0;fontSize=20;" edge="1" parent="1" source="BSJFie1uUJTzOuVvLkni-5" target="BSJFie1uUJTzOuVvLkni-14">
          <mxGeometry width="50" height="50" relative="1" as="geometry">
            <mxPoint x="-43.81116666666662" y="-694.24" as="sourcePoint" />
            <mxPoint x="337.1405" y="-555.192380952381" as="targetPoint" />
          </mxGeometry>
        </mxCell>
        <mxCell id="BSJFie1uUJTzOuVvLkni-29" value="UC-06&lt;div style=&quot;font-size: 20px;&quot;&gt;최소 환승 경로 탐색&lt;/div&gt;" style="ellipse;whiteSpace=wrap;html=1;fontSize=20;" vertex="1" parent="1">
          <mxGeometry x="-469.99800000000005" y="-229.99619047619035" width="228.57099999999997" height="114.28571428571429" as="geometry" />
        </mxCell>
        <mxCell id="BSJFie1uUJTzOuVvLkni-30" value="" style="endArrow=none;html=1;rounded=0;exitX=1;exitY=0.5;exitDx=0;exitDy=0;entryX=0;entryY=0.25;entryDx=0;entryDy=0;fontSize=20;" edge="1" parent="1" source="BSJFie1uUJTzOuVvLkni-8" target="BSJFie1uUJTzOuVvLkni-14">
          <mxGeometry width="50" height="50" relative="1" as="geometry">
            <mxPoint x="908.5679999999998" y="-865.6685714285715" as="sourcePoint" />
            <mxPoint x="851.4252499999998" y="-675.192380952381" as="targetPoint" />
          </mxGeometry>
        </mxCell>
        <mxCell id="BSJFie1uUJTzOuVvLkni-31" value="" style="endArrow=none;html=1;rounded=0;exitX=1;exitY=0.5;exitDx=0;exitDy=0;entryX=0;entryY=0.25;entryDx=0;entryDy=0;fontSize=20;" edge="1" parent="1" source="BSJFie1uUJTzOuVvLkni-6" target="BSJFie1uUJTzOuVvLkni-14">
          <mxGeometry width="50" height="50" relative="1" as="geometry">
            <mxPoint x="-215.23941666666667" y="-694.24" as="sourcePoint" />
            <mxPoint x="813.3300833333328" y="-465.66857142857134" as="targetPoint" />
          </mxGeometry>
        </mxCell>
        <mxCell id="BSJFie1uUJTzOuVvLkni-35" value="UC-07&lt;div style=&quot;font-size: 20px;&quot;&gt;요금 조회&lt;/div&gt;" style="ellipse;whiteSpace=wrap;html=1;fontSize=20;" vertex="1" parent="1">
          <mxGeometry x="-469.9943333333333" y="-410.00333333333356" width="228.57099999999997" height="114.28571428571429" as="geometry" />
        </mxCell>
        <mxCell id="BSJFie1uUJTzOuVvLkni-38" value="" style="endArrow=none;html=1;rounded=0;exitX=1;exitY=0.5;exitDx=0;exitDy=0;entryX=0;entryY=0.25;entryDx=0;entryDy=0;fontSize=20;" edge="1" parent="1" source="BSJFie1uUJTzOuVvLkni-35" target="BSJFie1uUJTzOuVvLkni-15">
          <mxGeometry width="50" height="50" relative="1" as="geometry">
            <mxPoint x="-215.23941666666667" y="-620.4285714285713" as="sourcePoint" />
            <mxPoint x="851.4252499999998" y="-582.3333333333335" as="targetPoint" />
          </mxGeometry>
        </mxCell>
        <mxCell id="BSJFie1uUJTzOuVvLkni-69" value="UC-08&lt;div style=&quot;font-size: 20px;&quot;&gt;도착 예정 시간 알림&lt;/div&gt;" style="ellipse;whiteSpace=wrap;html=1;fontSize=20;" vertex="1" parent="1">
          <mxGeometry x="-279.99800000000005" y="-115.70952380952392" width="228.57099999999997" height="114.28571428571429" as="geometry" />
        </mxCell>
        <mxCell id="BSJFie1uUJTzOuVvLkni-75" value="UC-01&lt;div&gt;노선도 조회&lt;/div&gt;" style="ellipse;whiteSpace=wrap;html=1;fontSize=20;" vertex="1" parent="1">
          <mxGeometry x="-469.99800000000005" y="-769.0019047619048" width="228.57099999999997" height="114.28571428571429" as="geometry" />
        </mxCell>
        <mxCell id="BSJFie1uUJTzOuVvLkni-76" value="" style="endArrow=none;html=1;rounded=0;entryX=0;entryY=0.5;entryDx=0;entryDy=0;fontSize=20;" edge="1" parent="1" source="BSJFie1uUJTzOuVvLkni-1" target="BSJFie1uUJTzOuVvLkni-75">
          <mxGeometry width="50" height="50" relative="1" as="geometry">
            <mxPoint x="-834" y="-603" as="sourcePoint" />
            <mxPoint x="-453" y="-932" as="targetPoint" />
          </mxGeometry>
        </mxCell>
        <mxCell id="BSJFie1uUJTzOuVvLkni-78" value="UC-09&lt;div style=&quot;font-size: 20px;&quot;&gt;도착 예정 시간 공유&lt;/div&gt;" style="ellipse;whiteSpace=wrap;html=1;fontSize=20;" vertex="1" parent="1">
          <mxGeometry x="-639.998" y="-115.70952380952392" width="228.57099999999997" height="114.28571428571429" as="geometry" />
        </mxCell>
        <mxCell id="BSJFie1uUJTzOuVvLkni-81" value="지하철 운영 회사" style="shape=umlActor;verticalLabelPosition=bottom;verticalAlign=top;html=1;fontSize=20;" vertex="1" parent="1">
          <mxGeometry x="-800" y="225.23523809523823" width="76.19033333333333" height="152.38095238095235" as="geometry" />
        </mxCell>
        <mxCell id="BSJFie1uUJTzOuVvLkni-85" value="" style="endArrow=none;html=1;rounded=0;exitX=1;exitY=0;exitDx=0;exitDy=0;entryX=0;entryY=0.25;entryDx=0;entryDy=0;fontSize=20;" edge="1" parent="1" source="BSJFie1uUJTzOuVvLkni-69" target="BSJFie1uUJTzOuVvLkni-14">
          <mxGeometry width="50" height="50" relative="1" as="geometry">
            <mxPoint x="-258" y="-662" as="sourcePoint" />
            <mxPoint x="530" y="-760" as="targetPoint" />
          </mxGeometry>
        </mxCell>
        <mxCell id="BSJFie1uUJTzOuVvLkni-86" value="&lt;font style=&quot;font-size: 20px;&quot;&gt;&amp;lt;&amp;lt;extend&amp;gt;&amp;gt;&lt;/font&gt;" style="endArrow=none;startArrow=classic;endFill=0;startFill=1;endSize=8;html=1;verticalAlign=bottom;dashed=1;labelBackgroundColor=none;rounded=0;exitX=0;exitY=0.5;exitDx=0;exitDy=0;entryX=1;entryY=0.5;entryDx=0;entryDy=0;" edge="1" parent="1" source="BSJFie1uUJTzOuVvLkni-69" target="BSJFie1uUJTzOuVvLkni-78">
          <mxGeometry width="160" relative="1" as="geometry">
            <mxPoint x="-340" y="-124.71000000000004" as="sourcePoint" />
            <mxPoint x="-180" y="-124.71000000000004" as="targetPoint" />
          </mxGeometry>
        </mxCell>
        <mxCell id="BSJFie1uUJTzOuVvLkni-87" value="UC-11&lt;div style=&quot;font-size: 20px;&quot;&gt;지하철 운행 정보 등록&lt;/div&gt;" style="ellipse;whiteSpace=wrap;html=1;fontSize=20;" vertex="1" parent="1">
          <mxGeometry x="-469.99400000000014" y="199.99666666666647" width="228.57099999999997" height="114.28571428571429" as="geometry" />
        </mxCell>
        <mxCell id="BSJFie1uUJTzOuVvLkni-88" value="" style="endArrow=none;startArrow=none;endFill=0;startFill=0;endSize=8;html=1;verticalAlign=bottom;labelBackgroundColor=none;strokeWidth=1;rounded=0;entryX=0;entryY=0.5;entryDx=0;entryDy=0;fontSize=20;" edge="1" parent="1" source="BSJFie1uUJTzOuVvLkni-81" target="BSJFie1uUJTzOuVvLkni-87">
          <mxGeometry width="160" relative="1" as="geometry">
            <mxPoint x="-714" y="65" as="sourcePoint" />
            <mxPoint x="140" y="18" as="targetPoint" />
          </mxGeometry>
        </mxCell>
        <mxCell id="BSJFie1uUJTzOuVvLkni-97" value="" style="endArrow=none;html=1;rounded=0;entryX=0;entryY=0.25;entryDx=0;entryDy=0;exitX=1;exitY=0.5;exitDx=0;exitDy=0;fontSize=20;" edge="1" parent="1" source="BSJFie1uUJTzOuVvLkni-75" target="BSJFie1uUJTzOuVvLkni-14">
          <mxGeometry width="50" height="50" relative="1" as="geometry">
            <mxPoint x="-224" y="-1102" as="sourcePoint" />
            <mxPoint x="530" y="-1102" as="targetPoint" />
          </mxGeometry>
        </mxCell>
        <mxCell id="BSJFie1uUJTzOuVvLkni-101" value="" style="endArrow=none;html=1;rounded=0;exitX=1;exitY=0.5;exitDx=0;exitDy=0;fontSize=20;entryX=0;entryY=0.25;entryDx=0;entryDy=0;" edge="1" parent="1" source="BSJFie1uUJTzOuVvLkni-29" target="BSJFie1uUJTzOuVvLkni-14">
          <mxGeometry width="50" height="50" relative="1" as="geometry">
            <mxPoint x="-224" y="-542" as="sourcePoint" />
            <mxPoint x="530" y="-702" as="targetPoint" />
          </mxGeometry>
        </mxCell>
        <mxCell id="BSJFie1uUJTzOuVvLkni-102" value="" style="endArrow=none;html=1;rounded=0;exitX=0;exitY=0.5;exitDx=0;exitDy=0;fontSize=20;" edge="1" parent="1" source="BSJFie1uUJTzOuVvLkni-29" target="BSJFie1uUJTzOuVvLkni-1">
          <mxGeometry width="50" height="50" relative="1" as="geometry">
            <mxPoint x="-214" y="-532" as="sourcePoint" />
            <mxPoint x="540" y="-692" as="targetPoint" />
          </mxGeometry>
        </mxCell>
        <mxCell id="BSJFie1uUJTzOuVvLkni-105" value="" style="endArrow=open;startArrow=none;endFill=0;startFill=0;endSize=8;html=1;verticalAlign=bottom;labelBackgroundColor=none;strokeWidth=1;rounded=0;entryX=0;entryY=0.75;entryDx=0;entryDy=0;exitX=1;exitY=0.5;exitDx=0;exitDy=0;" edge="1" parent="1" source="BSJFie1uUJTzOuVvLkni-18" target="BSJFie1uUJTzOuVvLkni-14">
          <mxGeometry width="160" relative="1" as="geometry">
            <mxPoint x="-160" y="-119" as="sourcePoint" />
            <mxPoint y="-119" as="targetPoint" />
          </mxGeometry>
        </mxCell>
        <mxCell id="BSJFie1uUJTzOuVvLkni-106" value="" style="endArrow=open;startArrow=none;endFill=0;startFill=0;endSize=8;html=1;verticalAlign=bottom;labelBackgroundColor=none;strokeWidth=1;rounded=0;entryX=0.007;entryY=0.799;entryDx=0;entryDy=0;exitX=1;exitY=0.5;exitDx=0;exitDy=0;entryPerimeter=0;" edge="1" parent="1" source="BSJFie1uUJTzOuVvLkni-87" target="BSJFie1uUJTzOuVvLkni-14">
          <mxGeometry width="160" relative="1" as="geometry">
            <mxPoint x="165" y="-22" as="sourcePoint" />
            <mxPoint x="290" y="-664" as="targetPoint" />
          </mxGeometry>
        </mxCell>
        <mxCell id="BSJFie1uUJTzOuVvLkni-107" value="" style="endArrow=open;startArrow=none;endFill=0;startFill=0;endSize=8;html=1;verticalAlign=bottom;labelBackgroundColor=none;strokeWidth=1;rounded=0;entryX=0;entryY=0.75;entryDx=0;entryDy=0;exitX=1;exitY=0.5;exitDx=0;exitDy=0;" edge="1" parent="1" source="BSJFie1uUJTzOuVvLkni-19" target="BSJFie1uUJTzOuVvLkni-15">
          <mxGeometry width="160" relative="1" as="geometry">
            <mxPoint x="175" y="-12" as="sourcePoint" />
            <mxPoint x="300" y="-654" as="targetPoint" />
          </mxGeometry>
        </mxCell>
        <mxCell id="BSJFie1uUJTzOuVvLkni-115" value="" style="endArrow=none;html=1;rounded=0;entryX=0;entryY=0.5;entryDx=0;entryDy=0;fontSize=20;" edge="1" parent="1" source="BSJFie1uUJTzOuVvLkni-1" target="BSJFie1uUJTzOuVvLkni-8">
          <mxGeometry width="50" height="50" relative="1" as="geometry">
            <mxPoint x="-694" y="-542" as="sourcePoint" />
            <mxPoint x="-433" y="-682" as="targetPoint" />
          </mxGeometry>
        </mxCell>
        <mxCell id="BSJFie1uUJTzOuVvLkni-117" value="UC-04&lt;div style=&quot;font-size: 20px;&quot;&gt;역 선택&lt;/div&gt;" style="ellipse;whiteSpace=wrap;html=1;fontSize=20;" vertex="1" parent="1">
          <mxGeometry x="-469.99800000000005" y="-1110.0019047619048" width="228.57099999999997" height="114.28571428571429" as="geometry" />
        </mxCell>
        <mxCell id="BSJFie1uUJTzOuVvLkni-118" value="&lt;font style=&quot;font-size: 20px;&quot;&gt;&amp;lt;&amp;lt;include&amp;gt;&amp;gt;&lt;/font&gt;" style="endArrow=none;startArrow=classic;endFill=0;startFill=1;endSize=8;html=1;verticalAlign=bottom;dashed=1;labelBackgroundColor=none;rounded=0;entryX=0.5;entryY=1;entryDx=0;entryDy=0;exitX=0.5;exitY=0;exitDx=0;exitDy=0;" edge="1" parent="1" source="BSJFie1uUJTzOuVvLkni-5" target="BSJFie1uUJTzOuVvLkni-117">
          <mxGeometry x="-0.0055" width="160" relative="1" as="geometry">
            <mxPoint x="140" y="-1060" as="sourcePoint" />
            <mxPoint x="-401" y="-262" as="targetPoint" />
            <mxPoint as="offset" />
          </mxGeometry>
        </mxCell>
        <mxCell id="BSJFie1uUJTzOuVvLkni-120" value="&lt;font style=&quot;font-size: 20px;&quot;&gt;&amp;lt;&amp;lt;include&amp;gt;&amp;gt;&lt;/font&gt;" style="endArrow=none;startArrow=classic;endFill=0;startFill=1;endSize=8;html=1;verticalAlign=bottom;dashed=1;labelBackgroundColor=none;rounded=0;entryX=0.5;entryY=0;entryDx=0;entryDy=0;exitX=0.5;exitY=1;exitDx=0;exitDy=0;" edge="1" parent="1" source="BSJFie1uUJTzOuVvLkni-8" target="BSJFie1uUJTzOuVvLkni-117">
          <mxGeometry width="160" relative="1" as="geometry">
            <mxPoint x="-346" y="-892" as="sourcePoint" />
            <mxPoint x="-346" y="-986" as="targetPoint" />
            <mxPoint as="offset" />
          </mxGeometry>
        </mxCell>
        <mxCell id="BSJFie1uUJTzOuVvLkni-122" value="" style="endArrow=none;html=1;rounded=0;entryX=0;entryY=0.5;entryDx=0;entryDy=0;fontSize=20;" edge="1" parent="1" source="BSJFie1uUJTzOuVvLkni-1" target="BSJFie1uUJTzOuVvLkni-117">
          <mxGeometry width="50" height="50" relative="1" as="geometry">
            <mxPoint x="-724" y="-721" as="sourcePoint" />
            <mxPoint x="-460" y="-853" as="targetPoint" />
          </mxGeometry>
        </mxCell>
        <mxCell id="BSJFie1uUJTzOuVvLkni-123" value="&lt;font style=&quot;font-size: 20px;&quot;&gt;&amp;lt;&amp;lt;include&amp;gt;&amp;gt;&lt;/font&gt;" style="endArrow=none;startArrow=classic;endFill=0;startFill=1;endSize=8;html=1;verticalAlign=bottom;dashed=1;labelBackgroundColor=none;rounded=0;entryX=0.5;entryY=0;entryDx=0;entryDy=0;exitX=0.5;exitY=1;exitDx=0;exitDy=0;" edge="1" parent="1" source="BSJFie1uUJTzOuVvLkni-6" target="BSJFie1uUJTzOuVvLkni-35">
          <mxGeometry x="-0.0055" width="160" relative="1" as="geometry">
            <mxPoint x="-345" y="-910" as="sourcePoint" />
            <mxPoint x="-345" y="-986" as="targetPoint" />
            <mxPoint as="offset" />
          </mxGeometry>
        </mxCell>
        <mxCell id="BSJFie1uUJTzOuVvLkni-124" value="&lt;font style=&quot;font-size: 20px;&quot;&gt;&amp;lt;&amp;lt;include&amp;gt;&amp;gt;&lt;/font&gt;" style="endArrow=none;startArrow=classic;endFill=0;startFill=1;endSize=8;html=1;verticalAlign=bottom;dashed=1;labelBackgroundColor=none;rounded=0;entryX=0.5;entryY=1;entryDx=0;entryDy=0;exitX=0.5;exitY=0;exitDx=0;exitDy=0;" edge="1" parent="1" source="BSJFie1uUJTzOuVvLkni-29" target="BSJFie1uUJTzOuVvLkni-35">
          <mxGeometry width="160" relative="1" as="geometry">
            <mxPoint x="-345" y="-1186" as="sourcePoint" />
            <mxPoint x="-345" y="-1100" as="targetPoint" />
            <mxPoint as="offset" />
          </mxGeometry>
        </mxCell>
      </root>
    </mxGraphModel>
  </diagram>
</mxfile>
